<?xml version="1.0" encoding="UTF-8" standalone="no"?>
<!DOCTYPE svg PUBLIC "-//W3C//DTD SVG 1.1//EN"
 "http://www.w3.org/Graphics/SVG/1.1/DTD/svg11.dtd">
<!-- Generated by graphviz version 9.0.0 (20230911.1827)
 -->
<!-- Title: G Pages: 1 -->
<svg width="1405pt" height="852pt"
 viewBox="0.00 0.00 1404.95 851.70" xmlns="http://www.w3.org/2000/svg" xmlns:xlink="http://www.w3.org/1999/xlink">
<g id="graph0" class="graph" transform="scale(1 1) rotate(0) translate(21.6 830.1)">
<title>G</title>
<polygon fill="#111111" stroke="none" points="-21.6,21.6 -21.6,-830.1 1383.35,-830.1 1383.35,21.6 -21.6,21.6"/>
<!-- App.css -->
<g id="node1" class="node">
<title>App.css</title>
<path fill="none" stroke="#cfffac" d="M657.08,-507.5C657.08,-507.5 604.92,-507.5 604.92,-507.5 600.83,-507.5 596.75,-503.42 596.75,-499.33 596.75,-499.33 596.75,-491.17 596.75,-491.17 596.75,-487.08 600.83,-483 604.92,-483 604.92,-483 657.08,-483 657.08,-483 661.17,-483 665.25,-487.08 665.25,-491.17 665.25,-491.17 665.25,-499.33 665.25,-499.33 665.25,-503.42 661.17,-507.5 657.08,-507.5"/>
<text text-anchor="middle" x="631" y="-490.2" font-family="Arial" font-size="14.00" fill="#cfffac">App.css</text>
</g>
<!-- App.js -->
<g id="node2" class="node">
<title>App.js</title>
<path fill="none" stroke="#c6c5fe" d="M381.58,-542.5C381.58,-542.5 341.42,-542.5 341.42,-542.5 337.33,-542.5 333.25,-538.42 333.25,-534.33 333.25,-534.33 333.25,-526.17 333.25,-526.17 333.25,-522.08 337.33,-518 341.42,-518 341.42,-518 381.58,-518 381.58,-518 385.67,-518 389.75,-522.08 389.75,-526.17 389.75,-526.17 389.75,-534.33 389.75,-534.33 389.75,-538.42 385.67,-542.5 381.58,-542.5"/>
<text text-anchor="middle" x="361.5" y="-525.2" font-family="Arial" font-size="14.00" fill="#c6c5fe">App.js</text>
</g>
<!-- App.js&#45;&gt;App.css -->
<g id="edge1" class="edge">
<title>App.js&#45;&gt;App.css</title>
<path fill="none" stroke="#757575" d="M390.12,-526.64C436.23,-520.6 529.31,-508.42 584.99,-501.14"/>
<polygon fill="#757575" stroke="#757575" points="585.32,-504.63 594.78,-499.86 584.41,-497.69 585.32,-504.63"/>
</g>
<!-- Components/About.js -->
<g id="node3" class="node">
<title>Components/About.js</title>
<path fill="none" stroke="#cfffac" d="M699.46,-765.5C699.46,-765.5 562.54,-765.5 562.54,-765.5 558.46,-765.5 554.38,-761.42 554.38,-757.33 554.38,-757.33 554.38,-749.17 554.38,-749.17 554.38,-745.08 558.46,-741 562.54,-741 562.54,-741 699.46,-741 699.46,-741 703.54,-741 707.62,-745.08 707.62,-749.17 707.62,-749.17 707.62,-757.33 707.62,-757.33 707.62,-761.42 703.54,-765.5 699.46,-765.5"/>
<text text-anchor="middle" x="631" y="-748.2" font-family="Arial" font-size="14.00" fill="#cfffac">Components/About.js</text>
</g>
<!-- App.js&#45;&gt;Components/About.js -->
<g id="edge2" class="edge">
<title>App.js&#45;&gt;Components/About.js</title>
<path fill="none" stroke="#757575" d="M370.33,-542.99C395.34,-583.28 473.94,-706.64 513.5,-731.25 522.51,-736.86 532.63,-741.1 543.03,-744.3"/>
<polygon fill="#757575" stroke="#757575" points="541.91,-747.62 552.48,-746.87 543.75,-740.87 541.91,-747.62"/>
</g>
<!-- Components/Contact.js -->
<g id="node4" class="node">
<title>Components/Contact.js</title>
<path fill="none" stroke="#c6c5fe" d="M705.08,-722.5C705.08,-722.5 556.92,-722.5 556.92,-722.5 552.83,-722.5 548.75,-718.42 548.75,-714.33 548.75,-714.33 548.75,-706.17 548.75,-706.17 548.75,-702.08 552.83,-698 556.92,-698 556.92,-698 705.08,-698 705.08,-698 709.17,-698 713.25,-702.08 713.25,-706.17 713.25,-706.17 713.25,-714.33 713.25,-714.33 713.25,-718.42 709.17,-722.5 705.08,-722.5"/>
<text text-anchor="middle" x="631" y="-705.2" font-family="Arial" font-size="14.00" fill="#c6c5fe">Components/Contact.js</text>
</g>
<!-- App.js&#45;&gt;Components/Contact.js -->
<g id="edge3" class="edge">
<title>App.js&#45;&gt;Components/Contact.js</title>
<path fill="none" stroke="#757575" d="M370.24,-542.59C389.98,-572.92 445.47,-651.32 513.5,-688.25 521.07,-692.36 529.27,-695.71 537.71,-698.45"/>
<polygon fill="#757575" stroke="#757575" points="536.45,-701.72 547.03,-701.17 538.41,-695 536.45,-701.72"/>
</g>
<!-- Components/Disclaimer.js -->
<g id="node5" class="node">
<title>Components/Disclaimer.js</title>
<path fill="none" stroke="#cfffac" d="M714.08,-421.5C714.08,-421.5 547.92,-421.5 547.92,-421.5 543.83,-421.5 539.75,-417.42 539.75,-413.33 539.75,-413.33 539.75,-405.17 539.75,-405.17 539.75,-401.08 543.83,-397 547.92,-397 547.92,-397 714.08,-397 714.08,-397 718.17,-397 722.25,-401.08 722.25,-405.17 722.25,-405.17 722.25,-413.33 722.25,-413.33 722.25,-417.42 718.17,-421.5 714.08,-421.5"/>
<text text-anchor="middle" x="631" y="-404.2" font-family="Arial" font-size="14.00" fill="#cfffac">Components/Disclaimer.js</text>
</g>
<!-- App.js&#45;&gt;Components/Disclaimer.js -->
<g id="edge4" class="edge">
<title>App.js&#45;&gt;Components/Disclaimer.js</title>
<path fill="none" stroke="#757575" d="M389.98,-531.72C415.24,-531.63 452.47,-527.72 477.5,-508.25 507.32,-485.05 483.66,-454.41 513.5,-431.25 518.33,-427.5 523.6,-424.33 529.15,-421.65"/>
<polygon fill="#757575" stroke="#757575" points="530.16,-425.02 538.02,-417.92 527.44,-418.57 530.16,-425.02"/>
</g>
<!-- Components/Footer.js -->
<g id="node6" class="node">
<title>Components/Footer.js</title>
<path fill="none" stroke="#c6c5fe" d="M701.71,-593.5C701.71,-593.5 560.29,-593.5 560.29,-593.5 556.21,-593.5 552.12,-589.42 552.12,-585.33 552.12,-585.33 552.12,-577.17 552.12,-577.17 552.12,-573.08 556.21,-569 560.29,-569 560.29,-569 701.71,-569 701.71,-569 705.79,-569 709.88,-573.08 709.88,-577.17 709.88,-577.17 709.88,-585.33 709.88,-585.33 709.88,-589.42 705.79,-593.5 701.71,-593.5"/>
<text text-anchor="middle" x="631" y="-576.2" font-family="Arial" font-size="14.00" fill="#c6c5fe">Components/Footer.js</text>
</g>
<!-- App.js&#45;&gt;Components/Footer.js -->
<g id="edge5" class="edge">
<title>App.js&#45;&gt;Components/Footer.js</title>
<path fill="none" stroke="#757575" d="M390.05,-535.57C420.31,-541.4 470.36,-551.03 513.5,-559.25 525.78,-561.59 538.78,-564.05 551.48,-566.46"/>
<polygon fill="#757575" stroke="#757575" points="550.57,-569.85 561.05,-568.27 551.87,-562.97 550.57,-569.85"/>
</g>
<!-- Components/FormulaPage.js -->
<g id="node7" class="node">
<title>Components/FormulaPage.js</title>
<path fill="none" stroke="#c6c5fe" d="M723.46,-185.5C723.46,-185.5 538.54,-185.5 538.54,-185.5 534.46,-185.5 530.38,-181.42 530.38,-177.33 530.38,-177.33 530.38,-169.17 530.38,-169.17 530.38,-165.08 534.46,-161 538.54,-161 538.54,-161 723.46,-161 723.46,-161 727.54,-161 731.62,-165.08 731.62,-169.17 731.62,-169.17 731.62,-177.33 731.62,-177.33 731.62,-181.42 727.54,-185.5 723.46,-185.5"/>
<text text-anchor="middle" x="631" y="-168.2" font-family="Arial" font-size="14.00" fill="#c6c5fe">Components/FormulaPage.js</text>
</g>
<!-- App.js&#45;&gt;Components/FormulaPage.js -->
<g id="edge6" class="edge">
<title>App.js&#45;&gt;Components/FormulaPage.js</title>
<path fill="none" stroke="#757575" d="M389.97,-533.3C416.34,-534.56 455.33,-531.77 477.5,-508.25 562.34,-418.22 442.04,-333.23 513.5,-232.25 527.4,-212.61 549.8,-199.11 571.26,-190.04"/>
<polygon fill="#757575" stroke="#757575" points="572.25,-193.41 580.27,-186.49 569.68,-186.9 572.25,-193.41"/>
</g>
<!-- Components/Homepage.js -->
<g id="node8" class="node">
<title>Components/Homepage.js</title>
<path fill="none" stroke="#c6c5fe" d="M715.96,-679.5C715.96,-679.5 546.04,-679.5 546.04,-679.5 541.96,-679.5 537.88,-675.42 537.88,-671.33 537.88,-671.33 537.88,-663.17 537.88,-663.17 537.88,-659.08 541.96,-655 546.04,-655 546.04,-655 715.96,-655 715.96,-655 720.04,-655 724.12,-659.08 724.12,-663.17 724.12,-663.17 724.12,-671.33 724.12,-671.33 724.12,-675.42 720.04,-679.5 715.96,-679.5"/>
<text text-anchor="middle" x="631" y="-662.2" font-family="Arial" font-size="14.00" fill="#c6c5fe">Components/Homepage.js</text>
</g>
<!-- App.js&#45;&gt;Components/Homepage.js -->
<g id="edge7" class="edge">
<title>App.js&#45;&gt;Components/Homepage.js</title>
<path fill="none" stroke="#757575" d="M374.5,-542.64C398.49,-566.62 455.1,-619.26 513.5,-645.25 518.41,-647.44 523.54,-649.41 528.78,-651.18"/>
<polygon fill="#757575" stroke="#757575" points="527.63,-654.49 538.22,-654.11 529.7,-647.8 527.63,-654.49"/>
</g>
<!-- Components/MyNavbar.js -->
<g id="node9" class="node">
<title>Components/MyNavbar.js</title>
<path fill="none" stroke="#c6c5fe" d="M711.83,-636.5C711.83,-636.5 550.17,-636.5 550.17,-636.5 546.08,-636.5 542,-632.42 542,-628.33 542,-628.33 542,-620.17 542,-620.17 542,-616.08 546.08,-612 550.17,-612 550.17,-612 711.83,-612 711.83,-612 715.92,-612 720,-616.08 720,-620.17 720,-620.17 720,-628.33 720,-628.33 720,-632.42 715.92,-636.5 711.83,-636.5"/>
<text text-anchor="middle" x="631" y="-619.2" font-family="Arial" font-size="14.00" fill="#c6c5fe">Components/MyNavbar.js</text>
</g>
<!-- App.js&#45;&gt;Components/MyNavbar.js -->
<g id="edge8" class="edge">
<title>App.js&#45;&gt;Components/MyNavbar.js</title>
<path fill="none" stroke="#757575" d="M384.27,-542.85C412.97,-558.93 465.46,-586.56 513.5,-602.25 520.95,-604.68 528.76,-606.88 536.65,-608.85"/>
<polygon fill="#757575" stroke="#757575" points="535.84,-612.26 546.37,-611.15 537.45,-605.45 535.84,-612.26"/>
</g>
<!-- Components/ReferenceFormula.js -->
<g id="node10" class="node">
<title>Components/ReferenceFormula.js</title>
<path fill="none" stroke="#c6c5fe" d="M740.33,-464.5C740.33,-464.5 521.67,-464.5 521.67,-464.5 517.58,-464.5 513.5,-460.42 513.5,-456.33 513.5,-456.33 513.5,-448.17 513.5,-448.17 513.5,-444.08 517.58,-440 521.67,-440 521.67,-440 740.33,-440 740.33,-440 744.42,-440 748.5,-444.08 748.5,-448.17 748.5,-448.17 748.5,-456.33 748.5,-456.33 748.5,-460.42 744.42,-464.5 740.33,-464.5"/>
<text text-anchor="middle" x="631" y="-447.2" font-family="Arial" font-size="14.00" fill="#c6c5fe">Components/ReferenceFormula.js</text>
</g>
<!-- App.js&#45;&gt;Components/ReferenceFormula.js -->
<g id="edge9" class="edge">
<title>App.js&#45;&gt;Components/ReferenceFormula.js</title>
<path fill="none" stroke="#757575" d="M389.92,-529.31C414.14,-527.51 449.81,-522.42 477.5,-508.25 497.09,-498.23 493.9,-484.25 513.5,-474.25 517.46,-472.23 521.58,-470.39 525.81,-468.72"/>
<polygon fill="#757575" stroke="#757575" points="526.83,-472.08 535.08,-465.42 524.48,-465.48 526.83,-472.08"/>
</g>
<!-- assets/images/drmatthews.jpeg -->
<g id="node20" class="node">
<title>assets/images/drmatthews.jpeg</title>
<path fill="none" stroke="#cfffac" d="M1036.08,-765.5C1036.08,-765.5 836.17,-765.5 836.17,-765.5 832.08,-765.5 828,-761.42 828,-757.33 828,-757.33 828,-749.17 828,-749.17 828,-745.08 832.08,-741 836.17,-741 836.17,-741 1036.08,-741 1036.08,-741 1040.17,-741 1044.25,-745.08 1044.25,-749.17 1044.25,-749.17 1044.25,-757.33 1044.25,-757.33 1044.25,-761.42 1040.17,-765.5 1036.08,-765.5"/>
<text text-anchor="middle" x="936.12" y="-748.2" font-family="Arial" font-size="14.00" fill="#cfffac">assets/images/drmatthews.jpeg</text>
</g>
<!-- Components/Contact.js&#45;&gt;assets/images/drmatthews.jpeg -->
<g id="edge24" class="edge">
<title>Components/Contact.js&#45;&gt;assets/images/drmatthews.jpeg</title>
<path fill="none" stroke="#757575" d="M713.63,-721.83C750.74,-727.09 795.01,-733.37 834.18,-738.93"/>
<polygon fill="#757575" stroke="#757575" points="833.46,-742.36 843.85,-740.3 834.44,-735.43 833.46,-742.36"/>
</g>
<!-- assets/images/usyd_logo.png -->
<g id="node21" class="node">
<title>assets/images/usyd_logo.png</title>
<path fill="none" stroke="#cfffac" d="M1030.83,-808.5C1030.83,-808.5 841.42,-808.5 841.42,-808.5 837.33,-808.5 833.25,-804.42 833.25,-800.33 833.25,-800.33 833.25,-792.17 833.25,-792.17 833.25,-788.08 837.33,-784 841.42,-784 841.42,-784 1030.83,-784 1030.83,-784 1034.92,-784 1039,-788.08 1039,-792.17 1039,-792.17 1039,-800.33 1039,-800.33 1039,-804.42 1034.92,-808.5 1030.83,-808.5"/>
<text text-anchor="middle" x="936.12" y="-791.2" font-family="Arial" font-size="14.00" fill="#cfffac">assets/images/usyd_logo.png</text>
</g>
<!-- Components/Contact.js&#45;&gt;assets/images/usyd_logo.png -->
<g id="edge25" class="edge">
<title>Components/Contact.js&#45;&gt;assets/images/usyd_logo.png</title>
<path fill="none" stroke="#757575" d="M713.5,-718.32C725.73,-721.57 737.81,-726.07 748.5,-732.25 769.78,-744.56 762.97,-762.39 784.5,-774.25 796.07,-780.63 808.87,-785.35 821.98,-788.83"/>
<polygon fill="#757575" stroke="#757575" points="821.02,-792.2 831.56,-791.11 822.64,-785.39 821.02,-792.2"/>
</g>
<!-- assets/images/USYD_LOGO_WHITE.png -->
<g id="node24" class="node">
<title>assets/images/USYD_LOGO_WHITE.png</title>
<path fill="none" stroke="#cfffac" d="M1070.21,-550.5C1070.21,-550.5 802.04,-550.5 802.04,-550.5 797.96,-550.5 793.88,-546.42 793.88,-542.33 793.88,-542.33 793.88,-534.17 793.88,-534.17 793.88,-530.08 797.96,-526 802.04,-526 802.04,-526 1070.21,-526 1070.21,-526 1074.29,-526 1078.38,-530.08 1078.38,-534.17 1078.38,-534.17 1078.38,-542.33 1078.38,-542.33 1078.38,-546.42 1074.29,-550.5 1070.21,-550.5"/>
<text text-anchor="middle" x="936.12" y="-533.2" font-family="Arial" font-size="14.00" fill="#cfffac">assets/images/USYD_LOGO_WHITE.png</text>
</g>
<!-- Components/Footer.js&#45;&gt;assets/images/USYD_LOGO_WHITE.png -->
<g id="edge32" class="edge">
<title>Components/Footer.js&#45;&gt;assets/images/USYD_LOGO_WHITE.png</title>
<path fill="none" stroke="#757575" d="M710.06,-570.18C747.82,-564.82 793.61,-558.32 834.01,-552.59"/>
<polygon fill="#757575" stroke="#757575" points="834.34,-556.08 843.75,-551.21 833.36,-549.15 834.34,-556.08"/>
</g>
<!-- Components/EquationForm.js -->
<g id="node13" class="node">
<title>Components/EquationForm.js</title>
<path fill="none" stroke="#cfffac" d="M1030.46,-136.5C1030.46,-136.5 841.79,-136.5 841.79,-136.5 837.71,-136.5 833.62,-132.42 833.62,-128.33 833.62,-128.33 833.62,-120.17 833.62,-120.17 833.62,-116.08 837.71,-112 841.79,-112 841.79,-112 1030.46,-112 1030.46,-112 1034.54,-112 1038.62,-116.08 1038.62,-120.17 1038.62,-120.17 1038.62,-128.33 1038.62,-128.33 1038.62,-132.42 1034.54,-136.5 1030.46,-136.5"/>
<text text-anchor="middle" x="936.12" y="-119.2" font-family="Arial" font-size="14.00" fill="#cfffac">Components/EquationForm.js</text>
</g>
<!-- Components/FormulaPage.js&#45;&gt;Components/EquationForm.js -->
<g id="edge33" class="edge">
<title>Components/FormulaPage.js&#45;&gt;Components/EquationForm.js</title>
<path fill="none" stroke="#757575" d="M701.39,-160.51C727.43,-155.85 757.29,-150.64 784.5,-146.25 800.4,-143.68 817.26,-141.09 833.73,-138.63"/>
<polygon fill="#757575" stroke="#757575" points="834.18,-142.1 843.56,-137.17 833.15,-135.18 834.18,-142.1"/>
</g>
<!-- Components/GraphDisplay.js -->
<g id="node14" class="node">
<title>Components/GraphDisplay.js</title>
<path fill="none" stroke="#cfffac" d="M1028.58,-265.5C1028.58,-265.5 843.67,-265.5 843.67,-265.5 839.58,-265.5 835.5,-261.42 835.5,-257.33 835.5,-257.33 835.5,-249.17 835.5,-249.17 835.5,-245.08 839.58,-241 843.67,-241 843.67,-241 1028.58,-241 1028.58,-241 1032.67,-241 1036.75,-245.08 1036.75,-249.17 1036.75,-249.17 1036.75,-257.33 1036.75,-257.33 1036.75,-261.42 1032.67,-265.5 1028.58,-265.5"/>
<text text-anchor="middle" x="936.12" y="-248.2" font-family="Arial" font-size="14.00" fill="#cfffac">Components/GraphDisplay.js</text>
</g>
<!-- Components/FormulaPage.js&#45;&gt;Components/GraphDisplay.js -->
<g id="edge35" class="edge">
<title>Components/FormulaPage.js&#45;&gt;Components/GraphDisplay.js</title>
<path fill="none" stroke="#757575" d="M713.76,-185.93C725.77,-189.37 737.71,-193.73 748.5,-199.25 767.56,-209 765.09,-222.21 784.5,-231.25 796.88,-237.02 810.4,-241.35 824.1,-244.6"/>
<polygon fill="#757575" stroke="#757575" points="823.11,-247.96 833.62,-246.65 824.59,-241.12 823.11,-247.96"/>
</g>
<!-- Components/data.js -->
<g id="node15" class="node">
<title>Components/data.js</title>
<path fill="none" stroke="#c6c5fe" d="M999.33,-381.5C999.33,-381.5 872.92,-381.5 872.92,-381.5 868.83,-381.5 864.75,-377.42 864.75,-373.33 864.75,-373.33 864.75,-365.17 864.75,-365.17 864.75,-361.08 868.83,-357 872.92,-357 872.92,-357 999.33,-357 999.33,-357 1003.42,-357 1007.5,-361.08 1007.5,-365.17 1007.5,-365.17 1007.5,-373.33 1007.5,-373.33 1007.5,-377.42 1003.42,-381.5 999.33,-381.5"/>
<text text-anchor="middle" x="936.12" y="-364.2" font-family="Arial" font-size="14.00" fill="#c6c5fe">Components/data.js</text>
</g>
<!-- Components/FormulaPage.js&#45;&gt;Components/data.js -->
<g id="edge37" class="edge">
<title>Components/FormulaPage.js&#45;&gt;Components/data.js</title>
<path fill="none" stroke="#757575" d="M665.41,-186C689.87,-196.28 723.09,-212.3 748.5,-232.25 767.84,-247.43 765.89,-258.18 784.5,-274.25 820.81,-305.62 868.46,-333.87 900.35,-351.25"/>
<polygon fill="#757575" stroke="#757575" points="898.32,-354.13 908.78,-355.79 901.63,-347.97 898.32,-354.13"/>
</g>
<!-- Components/Formula.css -->
<g id="node25" class="node">
<title>Components/Formula.css</title>
<path fill="none" stroke="#cfffac" d="M1017.71,-222.5C1017.71,-222.5 854.54,-222.5 854.54,-222.5 850.46,-222.5 846.38,-218.42 846.38,-214.33 846.38,-214.33 846.38,-206.17 846.38,-206.17 846.38,-202.08 850.46,-198 854.54,-198 854.54,-198 1017.71,-198 1017.71,-198 1021.79,-198 1025.88,-202.08 1025.88,-206.17 1025.88,-206.17 1025.88,-214.33 1025.88,-214.33 1025.88,-218.42 1021.79,-222.5 1017.71,-222.5"/>
<text text-anchor="middle" x="936.12" y="-205.2" font-family="Arial" font-size="14.00" fill="#cfffac">Components/Formula.css</text>
</g>
<!-- Components/FormulaPage.js&#45;&gt;Components/Formula.css -->
<g id="edge34" class="edge">
<title>Components/FormulaPage.js&#45;&gt;Components/Formula.css</title>
<path fill="none" stroke="#757575" d="M732.09,-185.47C765.17,-189.51 801.96,-194 835.04,-198.03"/>
<polygon fill="#757575" stroke="#757575" points="834.25,-201.46 844.6,-199.2 835.1,-194.51 834.25,-201.46"/>
</g>
<!-- Components/GraphInformation.js -->
<g id="node26" class="node">
<title>Components/GraphInformation.js</title>
<path fill="none" stroke="#c6c5fe" d="M1040.96,-179.5C1040.96,-179.5 831.29,-179.5 831.29,-179.5 827.21,-179.5 823.12,-175.42 823.12,-171.33 823.12,-171.33 823.12,-163.17 823.12,-163.17 823.12,-159.08 827.21,-155 831.29,-155 831.29,-155 1040.96,-155 1040.96,-155 1045.04,-155 1049.12,-159.08 1049.12,-163.17 1049.12,-163.17 1049.12,-171.33 1049.12,-171.33 1049.12,-175.42 1045.04,-179.5 1040.96,-179.5"/>
<text text-anchor="middle" x="936.12" y="-162.2" font-family="Arial" font-size="14.00" fill="#c6c5fe">Components/GraphInformation.js</text>
</g>
<!-- Components/FormulaPage.js&#45;&gt;Components/GraphInformation.js -->
<g id="edge36" class="edge">
<title>Components/FormulaPage.js&#45;&gt;Components/GraphInformation.js</title>
<path fill="none" stroke="#757575" d="M732.09,-171.27C757.52,-170.77 785.14,-170.22 811.58,-169.7"/>
<polygon fill="#757575" stroke="#757575" points="811.39,-173.2 821.31,-169.5 811.25,-166.2 811.39,-173.2"/>
</g>
<!-- Components/Homepage.js&#45;&gt;Components/data.js -->
<g id="edge45" class="edge">
<title>Components/Homepage.js&#45;&gt;Components/data.js</title>
<path fill="none" stroke="#757575" d="M724.62,-661.01C733.51,-657.27 741.73,-652.16 748.5,-645.25 815.73,-576.71 724.8,-507.44 784.5,-432.25 802.63,-409.42 830.5,-394.76 857.36,-385.4"/>
<polygon fill="#757575" stroke="#757575" points="858.12,-388.84 866.54,-382.41 855.95,-382.18 858.12,-388.84"/>
</g>
<!-- Components/Homepage.css -->
<g id="node30" class="node">
<title>Components/Homepage.css</title>
<path fill="none" stroke="#cfffac" d="M1027.08,-679.5C1027.08,-679.5 845.17,-679.5 845.17,-679.5 841.08,-679.5 837,-675.42 837,-671.33 837,-671.33 837,-663.17 837,-663.17 837,-659.08 841.08,-655 845.17,-655 845.17,-655 1027.08,-655 1027.08,-655 1031.17,-655 1035.25,-659.08 1035.25,-663.17 1035.25,-663.17 1035.25,-671.33 1035.25,-671.33 1035.25,-675.42 1031.17,-679.5 1027.08,-679.5"/>
<text text-anchor="middle" x="936.12" y="-662.2" font-family="Arial" font-size="14.00" fill="#cfffac">Components/Homepage.css</text>
</g>
<!-- Components/Homepage.js&#45;&gt;Components/Homepage.css -->
<g id="edge44" class="edge">
<title>Components/Homepage.js&#45;&gt;Components/Homepage.css</title>
<path fill="none" stroke="#757575" d="M724.59,-667.25C756.43,-667.25 792.37,-667.25 825.43,-667.25"/>
<polygon fill="#757575" stroke="#757575" points="825.01,-670.75 835.01,-667.25 825.01,-663.75 825.01,-670.75"/>
</g>
<!-- assets/images/Untitled&#45;1 copy.jpg -->
<g id="node31" class="node">
<title>assets/images/Untitled&#45;1 copy.jpg</title>
<path fill="none" stroke="#cfffac" d="M1042.83,-722.5C1042.83,-722.5 829.42,-722.5 829.42,-722.5 825.33,-722.5 821.25,-718.42 821.25,-714.33 821.25,-714.33 821.25,-706.17 821.25,-706.17 821.25,-702.08 825.33,-698 829.42,-698 829.42,-698 1042.83,-698 1042.83,-698 1046.92,-698 1051,-702.08 1051,-706.17 1051,-706.17 1051,-714.33 1051,-714.33 1051,-718.42 1046.92,-722.5 1042.83,-722.5"/>
<text text-anchor="middle" x="936.12" y="-705.2" font-family="Arial" font-size="14.00" fill="#cfffac">assets/images/Untitled&#45;1 copy.jpg</text>
</g>
<!-- Components/Homepage.js&#45;&gt;assets/images/Untitled&#45;1 copy.jpg -->
<g id="edge46" class="edge">
<title>Components/Homepage.js&#45;&gt;assets/images/Untitled&#45;1 copy.jpg</title>
<path fill="none" stroke="#757575" d="M721.72,-679.98C757.08,-684.99 797.86,-690.78 834.24,-695.94"/>
<polygon fill="#757575" stroke="#757575" points="833.49,-699.37 843.88,-697.31 834.47,-692.44 833.49,-699.37"/>
</g>
<!-- assets/images/try2.png -->
<g id="node32" class="node">
<title>assets/images/try2.png</title>
<path fill="none" stroke="#cfffac" d="M1009.46,-636.5C1009.46,-636.5 862.79,-636.5 862.79,-636.5 858.71,-636.5 854.62,-632.42 854.62,-628.33 854.62,-628.33 854.62,-620.17 854.62,-620.17 854.62,-616.08 858.71,-612 862.79,-612 862.79,-612 1009.46,-612 1009.46,-612 1013.54,-612 1017.62,-616.08 1017.62,-620.17 1017.62,-620.17 1017.62,-628.33 1017.62,-628.33 1017.62,-632.42 1013.54,-636.5 1009.46,-636.5"/>
<text text-anchor="middle" x="936.12" y="-619.2" font-family="Arial" font-size="14.00" fill="#cfffac">assets/images/try2.png</text>
</g>
<!-- Components/Homepage.js&#45;&gt;assets/images/try2.png -->
<g id="edge47" class="edge">
<title>Components/Homepage.js&#45;&gt;assets/images/try2.png</title>
<path fill="none" stroke="#757575" d="M721.72,-654.52C759.93,-649.1 804.48,-642.78 842.95,-637.32"/>
<polygon fill="#757575" stroke="#757575" points="843.25,-640.82 852.66,-635.95 842.27,-633.89 843.25,-640.82"/>
</g>
<!-- Components/MyNavbar.js&#45;&gt;Components/data.js -->
<g id="edge49" class="edge">
<title>Components/MyNavbar.js&#45;&gt;Components/data.js</title>
<path fill="none" stroke="#757575" d="M720.29,-619.29C730.78,-615.49 740.55,-610.02 748.5,-602.25 803.71,-548.24 735.24,-491.73 784.5,-432.25 803.33,-409.51 831.78,-394.84 858.9,-385.45"/>
<polygon fill="#757575" stroke="#757575" points="859.73,-388.86 868.16,-382.44 857.57,-382.2 859.73,-388.86"/>
</g>
<!-- Components/MyNavbar.js&#45;&gt;assets/images/try2.png -->
<g id="edge50" class="edge">
<title>Components/MyNavbar.js&#45;&gt;assets/images/try2.png</title>
<path fill="none" stroke="#757575" d="M720.49,-624.25C758.98,-624.25 804.08,-624.25 842.97,-624.25"/>
<polygon fill="#757575" stroke="#757575" points="842.78,-627.75 852.78,-624.25 842.78,-620.75 842.78,-627.75"/>
</g>
<!-- Components/MyNavbar.css -->
<g id="node33" class="node">
<title>Components/MyNavbar.css</title>
<path fill="none" stroke="#cfffac" d="M1022.96,-593.5C1022.96,-593.5 849.29,-593.5 849.29,-593.5 845.21,-593.5 841.12,-589.42 841.12,-585.33 841.12,-585.33 841.12,-577.17 841.12,-577.17 841.12,-573.08 845.21,-569 849.29,-569 849.29,-569 1022.96,-569 1022.96,-569 1027.04,-569 1031.12,-573.08 1031.12,-577.17 1031.12,-577.17 1031.12,-585.33 1031.12,-585.33 1031.12,-589.42 1027.04,-593.5 1022.96,-593.5"/>
<text text-anchor="middle" x="936.12" y="-576.2" font-family="Arial" font-size="14.00" fill="#cfffac">Components/MyNavbar.css</text>
</g>
<!-- Components/MyNavbar.js&#45;&gt;Components/MyNavbar.css -->
<g id="edge48" class="edge">
<title>Components/MyNavbar.js&#45;&gt;Components/MyNavbar.css</title>
<path fill="none" stroke="#757575" d="M720.49,-611.7C756.12,-606.64 797.42,-600.78 834.21,-595.57"/>
<polygon fill="#757575" stroke="#757575" points="834.57,-599.05 843.97,-594.18 833.58,-592.12 834.57,-599.05"/>
</g>
<!-- Components/ReferenceFormula.js&#45;&gt;Components/data.js -->
<g id="edge52" class="edge">
<title>Components/ReferenceFormula.js&#45;&gt;Components/data.js</title>
<path fill="none" stroke="#757575" d="M724.77,-439.54C732.99,-436.99 741.02,-433.93 748.5,-430.25 767.71,-420.81 765.3,-407.72 784.5,-398.25 805.64,-387.82 830.17,-381.13 853.21,-376.85"/>
<polygon fill="#757575" stroke="#757575" points="853.63,-380.33 862.9,-375.19 852.45,-373.43 853.63,-380.33"/>
</g>
<!-- Components/Latex.js -->
<g id="node17" class="node">
<title>Components/Latex.js</title>
<path fill="none" stroke="#cfffac" d="M1309.71,-402.5C1309.71,-402.5 1175.79,-402.5 1175.79,-402.5 1171.71,-402.5 1167.62,-398.42 1167.62,-394.33 1167.62,-394.33 1167.62,-386.17 1167.62,-386.17 1167.62,-382.08 1171.71,-378 1175.79,-378 1175.79,-378 1309.71,-378 1309.71,-378 1313.79,-378 1317.88,-382.08 1317.88,-386.17 1317.88,-386.17 1317.88,-394.33 1317.88,-394.33 1317.88,-398.42 1313.79,-402.5 1309.71,-402.5"/>
<text text-anchor="middle" x="1242.75" y="-385.2" font-family="Arial" font-size="14.00" fill="#cfffac">Components/Latex.js</text>
</g>
<!-- Components/ReferenceFormula.js&#45;&gt;Components/Latex.js -->
<g id="edge51" class="edge">
<title>Components/ReferenceFormula.js&#45;&gt;Components/Latex.js</title>
<path fill="none" stroke="#757575" d="M724.67,-439.51C744.4,-436.96 765.13,-434.41 784.5,-432.25 913.79,-417.84 1064.06,-404.73 1156.02,-397.13"/>
<polygon fill="#757575" stroke="#757575" points="1156.03,-400.64 1165.7,-396.33 1155.45,-393.66 1156.03,-400.64"/>
</g>
<!-- assets/images/Pharmacokinetic_Triangle.png -->
<g id="node18" class="node">
<title>assets/images/Pharmacokinetic_Triangle.png</title>
<path fill="none" stroke="#cfffac" d="M1079.58,-465.5C1079.58,-465.5 792.67,-465.5 792.67,-465.5 788.58,-465.5 784.5,-461.42 784.5,-457.33 784.5,-457.33 784.5,-449.17 784.5,-449.17 784.5,-445.08 788.58,-441 792.67,-441 792.67,-441 1079.58,-441 1079.58,-441 1083.67,-441 1087.75,-445.08 1087.75,-449.17 1087.75,-449.17 1087.75,-457.33 1087.75,-457.33 1087.75,-461.42 1083.67,-465.5 1079.58,-465.5"/>
<text text-anchor="middle" x="936.12" y="-448.2" font-family="Arial" font-size="14.00" fill="#cfffac">assets/images/Pharmacokinetic_Triangle.png</text>
</g>
<!-- Components/ReferenceFormula.js&#45;&gt;assets/images/Pharmacokinetic_Triangle.png -->
<g id="edge53" class="edge">
<title>Components/ReferenceFormula.js&#45;&gt;assets/images/Pharmacokinetic_Triangle.png</title>
<path fill="none" stroke="#757575" d="M748.76,-452.64C756.64,-452.66 764.65,-452.69 772.7,-452.71"/>
<polygon fill="#757575" stroke="#757575" points="772.58,-456.21 782.59,-452.75 772.6,-449.21 772.58,-456.21"/>
</g>
<!-- App.test.js -->
<g id="node11" class="node">
<title>App.test.js</title>
<path fill="none" stroke="#c6c5fe" d="M138.33,-562.5C138.33,-562.5 71.17,-562.5 71.17,-562.5 67.08,-562.5 63,-558.42 63,-554.33 63,-554.33 63,-546.17 63,-546.17 63,-542.08 67.08,-538 71.17,-538 71.17,-538 138.33,-538 138.33,-538 142.42,-538 146.5,-542.08 146.5,-546.17 146.5,-546.17 146.5,-554.33 146.5,-554.33 146.5,-558.42 142.42,-562.5 138.33,-562.5"/>
<text text-anchor="middle" x="104.75" y="-545.2" font-family="Arial" font-size="14.00" fill="#c6c5fe">App.test.js</text>
</g>
<!-- App.test.js&#45;&gt;App.js -->
<g id="edge10" class="edge">
<title>App.test.js&#45;&gt;App.js</title>
<path fill="none" stroke="#757575" d="M146.96,-547.01C195.26,-543.22 274.65,-536.99 321.82,-533.29"/>
<polygon fill="#757575" stroke="#757575" points="321.88,-536.79 331.58,-532.52 321.33,-529.81 321.88,-536.79"/>
</g>
<!-- App.test.js&#45;&gt;Components/About.js -->
<g id="edge11" class="edge">
<title>App.test.js&#45;&gt;Components/About.js</title>
<path fill="none" stroke="#757575" d="M146.95,-548.85C168.34,-550.36 193.32,-556.01 209.5,-572.25 264.93,-627.89 185.09,-695.06 245.5,-745.25 341.64,-825.12 502.77,-792.46 582.44,-769.14"/>
<polygon fill="#757575" stroke="#757575" points="583.11,-772.59 591.68,-766.35 581.09,-765.89 583.11,-772.59"/>
</g>
<!-- App.test.js&#45;&gt;Components/Contact.js -->
<g id="edge13" class="edge">
<title>App.test.js&#45;&gt;Components/Contact.js</title>
<path fill="none" stroke="#757575" d="M146.82,-550.88C167.41,-553.08 191.68,-558.72 209.5,-572.25 237.05,-593.17 217.63,-620.77 245.5,-641.25 290.82,-674.55 438.81,-693.67 537.41,-703"/>
<polygon fill="#757575" stroke="#757575" points="536.8,-706.46 547.08,-703.89 537.44,-699.49 536.8,-706.46"/>
</g>
<!-- App.test.js&#45;&gt;Components/FormulaPage.js -->
<g id="edge15" class="edge">
<title>App.test.js&#45;&gt;Components/FormulaPage.js</title>
<path fill="none" stroke="#757575" d="M131.37,-537.52C155.79,-523.92 191.44,-499.97 209.5,-468.25 269.17,-363.42 157.46,-281.7 245.5,-199.25 283.76,-163.41 419.26,-161.71 518.62,-165.78"/>
<polygon fill="#757575" stroke="#757575" points="518.28,-169.27 528.42,-166.21 518.58,-162.27 518.28,-169.27"/>
</g>
<!-- App.test.js&#45;&gt;Components/Homepage.js -->
<g id="edge17" class="edge">
<title>App.test.js&#45;&gt;Components/Homepage.js</title>
<path fill="none" stroke="#757575" d="M146.95,-554.79C166.53,-557.98 189.88,-563.34 209.5,-572.25 227.71,-580.52 227.15,-591.29 245.5,-599.25 335.63,-638.35 446.95,-654.97 526.57,-662.04"/>
<polygon fill="#757575" stroke="#757575" points="525.83,-665.48 536.09,-662.84 526.42,-658.51 525.83,-665.48"/>
</g>
<!-- App.test.js&#45;&gt;Components/MyNavbar.js -->
<g id="edge18" class="edge">
<title>App.test.js&#45;&gt;Components/MyNavbar.js</title>
<path fill="none" stroke="#757575" d="M146.89,-556.06C228.88,-567.63 414.73,-593.86 530.53,-610.21"/>
<polygon fill="#757575" stroke="#757575" points="529.97,-613.67 540.37,-611.6 530.95,-606.73 529.97,-613.67"/>
</g>
<!-- Components/Constants.js -->
<g id="node12" class="node">
<title>Components/Constants.js</title>
<path fill="none" stroke="#c6c5fe" d="M712.58,-550.5C712.58,-550.5 549.42,-550.5 549.42,-550.5 545.33,-550.5 541.25,-546.42 541.25,-542.33 541.25,-542.33 541.25,-534.17 541.25,-534.17 541.25,-530.08 545.33,-526 549.42,-526 549.42,-526 712.58,-526 712.58,-526 716.67,-526 720.75,-530.08 720.75,-534.17 720.75,-534.17 720.75,-542.33 720.75,-542.33 720.75,-546.42 716.67,-550.5 712.58,-550.5"/>
<text text-anchor="middle" x="631" y="-533.2" font-family="Arial" font-size="14.00" fill="#c6c5fe">Components/Constants.js</text>
</g>
<!-- App.test.js&#45;&gt;Components/Constants.js -->
<g id="edge12" class="edge">
<title>App.test.js&#45;&gt;Components/Constants.js</title>
<path fill="none" stroke="#757575" d="M146.72,-550.62C174.57,-550.85 212.26,-551.13 245.5,-551.25 348.61,-551.62 374.48,-555.63 477.5,-551.25 494.38,-550.53 512.28,-549.37 529.65,-548.03"/>
<polygon fill="#757575" stroke="#757575" points="529.78,-551.53 539.47,-547.24 529.22,-544.55 529.78,-551.53"/>
</g>
<!-- App.test.js&#45;&gt;Components/EquationForm.js -->
<g id="edge14" class="edge">
<title>App.test.js&#45;&gt;Components/EquationForm.js</title>
<path fill="none" stroke="#757575" d="M131.59,-537.64C156.17,-524.14 191.95,-500.26 209.5,-468.25 247.52,-398.92 186.83,-167.26 245.5,-114.25 287.11,-76.66 637.09,-99.44 821.86,-114.36"/>
<polygon fill="#757575" stroke="#757575" points="821.48,-117.84 831.73,-115.17 822.05,-110.87 821.48,-117.84"/>
</g>
<!-- App.test.js&#45;&gt;Components/GraphDisplay.js -->
<g id="edge16" class="edge">
<title>App.test.js&#45;&gt;Components/GraphDisplay.js</title>
<path fill="none" stroke="#757575" d="M130.6,-537.59C154.79,-523.9 190.59,-499.74 209.5,-468.25 255.56,-391.58 181.03,-332.25 245.5,-270.25 325.97,-192.86 654.99,-219.18 827.86,-239.19"/>
<polygon fill="#757575" stroke="#757575" points="827.43,-242.66 837.77,-240.35 828.24,-235.71 827.43,-242.66"/>
</g>
<!-- App.test.js&#45;&gt;Components/data.js -->
<g id="edge19" class="edge">
<title>App.test.js&#45;&gt;Components/data.js</title>
<path fill="none" stroke="#757575" d="M123.47,-537.53C149.25,-519.53 199.07,-486.55 245.5,-466.25 359.16,-416.55 391.11,-408.52 513.5,-388.25 630.3,-368.91 767.62,-366.41 853.02,-367.2"/>
<polygon fill="#757575" stroke="#757575" points="852.91,-370.7 862.95,-367.31 852.99,-363.7 852.91,-370.7"/>
</g>
<!-- Components/Constants.js&#45;&gt;Components/Latex.js -->
<g id="edge21" class="edge">
<title>Components/Constants.js&#45;&gt;Components/Latex.js</title>
<path fill="none" stroke="#757575" d="M720.98,-525.96C852.39,-507.77 1083.41,-475.68 1087.75,-474.25 1135.03,-458.61 1184.74,-428.68 1214.49,-409.1"/>
<polygon fill="#757575" stroke="#757575" points="1216.15,-412.19 1222.52,-403.73 1212.26,-406.37 1216.15,-412.19"/>
</g>
<!-- Components/Constants.js&#45;&gt;assets/images/Pharmacokinetic_Triangle.png -->
<g id="edge22" class="edge">
<title>Components/Constants.js&#45;&gt;assets/images/Pharmacokinetic_Triangle.png</title>
<path fill="none" stroke="#757575" d="M720.99,-527.12C730.55,-524.27 739.91,-520.71 748.5,-516.25 768.3,-505.97 764.68,-491.51 784.5,-481.25 793.79,-476.44 803.78,-472.45 814.04,-469.14"/>
<polygon fill="#757575" stroke="#757575" points="814.78,-472.57 823.36,-466.36 812.78,-465.86 814.78,-472.57"/>
</g>
<!-- Components/data.js&#45;&gt;Components/Latex.js -->
<g id="edge54" class="edge">
<title>Components/data.js&#45;&gt;Components/Latex.js</title>
<path fill="none" stroke="#757575" d="M1007.78,-374.12C1051.94,-377.17 1109.11,-381.11 1155.89,-384.33"/>
<polygon fill="#757575" stroke="#757575" points="1155.5,-387.81 1165.72,-385.01 1155.98,-380.83 1155.5,-387.81"/>
</g>
<!-- Components/About.test.js -->
<g id="node16" class="node">
<title>Components/About.test.js</title>
<path fill="none" stroke="#c6c5fe" d="M443.46,-736.5C443.46,-736.5 279.54,-736.5 279.54,-736.5 275.46,-736.5 271.38,-732.42 271.38,-728.33 271.38,-728.33 271.38,-720.17 271.38,-720.17 271.38,-716.08 275.46,-712 279.54,-712 279.54,-712 443.46,-712 443.46,-712 447.54,-712 451.62,-716.08 451.62,-720.17 451.62,-720.17 451.62,-728.33 451.62,-728.33 451.62,-732.42 447.54,-736.5 443.46,-736.5"/>
<text text-anchor="middle" x="361.5" y="-719.2" font-family="Arial" font-size="14.00" fill="#c6c5fe">Components/About.test.js</text>
</g>
<!-- Components/About.test.js&#45;&gt;Components/About.js -->
<g id="edge20" class="edge">
<title>Components/About.test.js&#45;&gt;Components/About.js</title>
<path fill="none" stroke="#757575" d="M451.95,-733.95C481.18,-737.12 513.59,-740.63 542.66,-743.78"/>
<polygon fill="#757575" stroke="#757575" points="542.22,-747.25 552.54,-744.85 542.98,-740.3 542.22,-747.25"/>
</g>
<!-- Components/Constants.test.js -->
<g id="node19" class="node">
<title>Components/Constants.test.js</title>
<path fill="none" stroke="#c6c5fe" d="M456.58,-499.5C456.58,-499.5 266.42,-499.5 266.42,-499.5 262.33,-499.5 258.25,-495.42 258.25,-491.33 258.25,-491.33 258.25,-483.17 258.25,-483.17 258.25,-479.08 262.33,-475 266.42,-475 266.42,-475 456.58,-475 456.58,-475 460.67,-475 464.75,-479.08 464.75,-483.17 464.75,-483.17 464.75,-491.33 464.75,-491.33 464.75,-495.42 460.67,-499.5 456.58,-499.5"/>
<text text-anchor="middle" x="361.5" y="-482.2" font-family="Arial" font-size="14.00" fill="#c6c5fe">Components/Constants.test.js</text>
</g>
<!-- Components/Constants.test.js&#45;&gt;Components/Constants.js -->
<g id="edge23" class="edge">
<title>Components/Constants.test.js&#45;&gt;Components/Constants.js</title>
<path fill="none" stroke="#757575" d="M429.09,-499.95C444.96,-502.99 461.83,-506.23 477.5,-509.25 493.5,-512.34 497.49,-513.18 513.5,-516.25 525.7,-518.59 538.61,-521.04 551.23,-523.44"/>
<polygon fill="#757575" stroke="#757575" points="550.26,-526.81 560.74,-525.23 551.56,-519.94 550.26,-526.81"/>
</g>
<!-- Components/Disclaimer.test.js -->
<g id="node22" class="node">
<title>Components/Disclaimer.test.js</title>
<path fill="none" stroke="#c6c5fe" d="M201.33,-459.5C201.33,-459.5 8.17,-459.5 8.17,-459.5 4.08,-459.5 0,-455.42 0,-451.33 0,-451.33 0,-443.17 0,-443.17 0,-439.08 4.08,-435 8.17,-435 8.17,-435 201.33,-435 201.33,-435 205.42,-435 209.5,-439.08 209.5,-443.17 209.5,-443.17 209.5,-451.33 209.5,-451.33 209.5,-455.42 205.42,-459.5 201.33,-459.5"/>
<text text-anchor="middle" x="104.75" y="-442.2" font-family="Arial" font-size="14.00" fill="#c6c5fe">Components/Disclaimer.test.js</text>
</g>
<!-- Components/Disclaimer.test.js&#45;&gt;App.js -->
<g id="edge26" class="edge">
<title>Components/Disclaimer.test.js&#45;&gt;App.js</title>
<path fill="none" stroke="#757575" d="M130.35,-460C157.78,-473.72 203.77,-495.33 245.5,-508.25 270.47,-515.98 299.37,-521.5 321.95,-525.07"/>
<polygon fill="#757575" stroke="#757575" points="321.22,-528.5 331.63,-526.54 322.27,-521.58 321.22,-528.5"/>
</g>
<!-- Components/Disclaimer.test.js&#45;&gt;Components/Disclaimer.js -->
<g id="edge27" class="edge">
<title>Components/Disclaimer.test.js&#45;&gt;Components/Disclaimer.js</title>
<path fill="none" stroke="#757575" d="M209.95,-439.7C302.4,-433 436.62,-423.27 528.3,-416.62"/>
<polygon fill="#757575" stroke="#757575" points="528.32,-420.13 538.04,-415.92 527.81,-413.15 528.32,-420.13"/>
</g>
<!-- Components/Disclaimer.test.js&#45;&gt;Components/ReferenceFormula.js -->
<g id="edge28" class="edge">
<title>Components/Disclaimer.test.js&#45;&gt;Components/ReferenceFormula.js</title>
<path fill="none" stroke="#757575" d="M209.95,-448.24C293.86,-449.04 412.18,-450.17 501.87,-451.03"/>
<polygon fill="#757575" stroke="#757575" points="501.67,-454.53 511.7,-451.12 501.73,-447.53 501.67,-454.53"/>
</g>
<!-- Components/EquationForm.test.js -->
<g id="node23" class="node">
<title>Components/EquationForm.test.js</title>
<path fill="none" stroke="#c6c5fe" d="M469.33,-147.5C469.33,-147.5 253.67,-147.5 253.67,-147.5 249.58,-147.5 245.5,-143.42 245.5,-139.33 245.5,-139.33 245.5,-131.17 245.5,-131.17 245.5,-127.08 249.58,-123 253.67,-123 253.67,-123 469.33,-123 469.33,-123 473.42,-123 477.5,-127.08 477.5,-131.17 477.5,-131.17 477.5,-139.33 477.5,-139.33 477.5,-143.42 473.42,-147.5 469.33,-147.5"/>
<text text-anchor="middle" x="361.5" y="-130.2" font-family="Arial" font-size="14.00" fill="#c6c5fe">Components/EquationForm.test.js</text>
</g>
<!-- Components/EquationForm.test.js&#45;&gt;Components/FormulaPage.js -->
<g id="edge30" class="edge">
<title>Components/EquationForm.test.js&#45;&gt;Components/FormulaPage.js</title>
<path fill="none" stroke="#757575" d="M451.95,-147.96C476.82,-151.49 504,-155.35 529.46,-158.97"/>
<polygon fill="#757575" stroke="#757575" points="528.75,-162.4 539.14,-160.34 529.73,-155.47 528.75,-162.4"/>
</g>
<!-- Components/EquationForm.test.js&#45;&gt;Components/EquationForm.js -->
<g id="edge29" class="edge">
<title>Components/EquationForm.test.js&#45;&gt;Components/EquationForm.js</title>
<path fill="none" stroke="#757575" d="M477.69,-133.04C578.01,-131.11 722.59,-128.33 822.23,-126.42"/>
<polygon fill="#757575" stroke="#757575" points="822.1,-129.92 832.03,-126.23 821.96,-122.92 822.1,-129.92"/>
</g>
<!-- Components/EquationForm.test.js&#45;&gt;Components/data.js -->
<g id="edge31" class="edge">
<title>Components/EquationForm.test.js&#45;&gt;Components/data.js</title>
<path fill="none" stroke="#757575" d="M371.78,-147.9C393.18,-176.02 449.14,-243.65 513.5,-274.25 608.81,-319.57 645.74,-284.21 748.5,-308.25 798.5,-319.95 854.27,-339 891.71,-352.7"/>
<polygon fill="#757575" stroke="#757575" points="890.23,-355.88 900.82,-356.06 892.65,-349.32 890.23,-355.88"/>
</g>
<!-- Components/GraphInformation.js&#45;&gt;Components/Latex.js -->
<g id="edge43" class="edge">
<title>Components/GraphInformation.js&#45;&gt;Components/Latex.js</title>
<path fill="none" stroke="#757575" d="M1049.45,-173.74C1062.9,-177.35 1076.01,-182.36 1087.75,-189.25 1160.82,-232.17 1211.17,-324.42 1231.58,-367.38"/>
<polygon fill="#757575" stroke="#757575" points="1228.32,-368.66 1235.7,-376.27 1234.67,-365.72 1228.32,-368.66"/>
</g>
<!-- Components/GraphInformation.css -->
<g id="node29" class="node">
<title>Components/GraphInformation.css</title>
<path fill="none" stroke="#cfffac" d="M1353.58,-179.5C1353.58,-179.5 1131.92,-179.5 1131.92,-179.5 1127.83,-179.5 1123.75,-175.42 1123.75,-171.33 1123.75,-171.33 1123.75,-163.17 1123.75,-163.17 1123.75,-159.08 1127.83,-155 1131.92,-155 1131.92,-155 1353.58,-155 1353.58,-155 1357.67,-155 1361.75,-159.08 1361.75,-163.17 1361.75,-163.17 1361.75,-171.33 1361.75,-171.33 1361.75,-175.42 1357.67,-179.5 1353.58,-179.5"/>
<text text-anchor="middle" x="1242.75" y="-162.2" font-family="Arial" font-size="14.00" fill="#cfffac">Components/GraphInformation.css</text>
</g>
<!-- Components/GraphInformation.js&#45;&gt;Components/GraphInformation.css -->
<g id="edge42" class="edge">
<title>Components/GraphInformation.js&#45;&gt;Components/GraphInformation.css</title>
<path fill="none" stroke="#757575" d="M1049.26,-167.25C1069.75,-167.25 1091.29,-167.25 1112.23,-167.25"/>
<polygon fill="#757575" stroke="#757575" points="1111.95,-170.75 1121.95,-167.25 1111.95,-163.75 1111.95,-170.75"/>
</g>
<!-- Components/FormulaPage.test.js -->
<g id="node27" class="node">
<title>Components/FormulaPage.test.js</title>
<path fill="none" stroke="#c6c5fe" d="M467.46,-303.5C467.46,-303.5 255.54,-303.5 255.54,-303.5 251.46,-303.5 247.38,-299.42 247.38,-295.33 247.38,-295.33 247.38,-287.17 247.38,-287.17 247.38,-283.08 251.46,-279 255.54,-279 255.54,-279 467.46,-279 467.46,-279 471.54,-279 475.62,-283.08 475.62,-287.17 475.62,-287.17 475.62,-295.33 475.62,-295.33 475.62,-299.42 471.54,-303.5 467.46,-303.5"/>
<text text-anchor="middle" x="361.5" y="-286.2" font-family="Arial" font-size="14.00" fill="#c6c5fe">Components/FormulaPage.test.js</text>
</g>
<!-- Components/FormulaPage.test.js&#45;&gt;Components/FormulaPage.js -->
<g id="edge38" class="edge">
<title>Components/FormulaPage.test.js&#45;&gt;Components/FormulaPage.js</title>
<path fill="none" stroke="#757575" d="M391.38,-278.51C439.64,-257.22 536.7,-214.41 590.98,-190.46"/>
<polygon fill="#757575" stroke="#757575" points="592.12,-193.79 599.85,-186.55 589.29,-187.38 592.12,-193.79"/>
</g>
<!-- Components/FormulaPage.test.js&#45;&gt;Components/data.js -->
<g id="edge39" class="edge">
<title>Components/FormulaPage.test.js&#45;&gt;Components/data.js</title>
<path fill="none" stroke="#757575" d="M456.1,-304C566.55,-319.04 748.41,-343.82 853.41,-358.12"/>
<polygon fill="#757575" stroke="#757575" points="852.69,-361.55 863.08,-359.44 853.64,-354.62 852.69,-361.55"/>
</g>
<!-- Components/GraphDisplay.test.js -->
<g id="node28" class="node">
<title>Components/GraphDisplay.test.js</title>
<path fill="none" stroke="#c6c5fe" d="M736.96,-265.5C736.96,-265.5 525.04,-265.5 525.04,-265.5 520.96,-265.5 516.88,-261.42 516.88,-257.33 516.88,-257.33 516.88,-249.17 516.88,-249.17 516.88,-245.08 520.96,-241 525.04,-241 525.04,-241 736.96,-241 736.96,-241 741.04,-241 745.12,-245.08 745.12,-249.17 745.12,-249.17 745.12,-257.33 745.12,-257.33 745.12,-261.42 741.04,-265.5 736.96,-265.5"/>
<text text-anchor="middle" x="631" y="-248.2" font-family="Arial" font-size="14.00" fill="#c6c5fe">Components/GraphDisplay.test.js</text>
</g>
<!-- Components/GraphDisplay.test.js&#45;&gt;Components/GraphDisplay.js -->
<g id="edge40" class="edge">
<title>Components/GraphDisplay.test.js&#45;&gt;Components/GraphDisplay.js</title>
<path fill="none" stroke="#757575" d="M745.3,-253.25C771.08,-253.25 798.45,-253.25 824.13,-253.25"/>
<polygon fill="#757575" stroke="#757575" points="823.9,-256.75 833.9,-253.25 823.9,-249.75 823.9,-256.75"/>
</g>
<!-- Components/GraphDisplay.test.js&#45;&gt;Components/data.js -->
<g id="edge41" class="edge">
<title>Components/GraphDisplay.test.js&#45;&gt;Components/data.js</title>
<path fill="none" stroke="#757575" d="M701.42,-266C717.1,-269.63 733.53,-274.05 748.5,-279.25 804.94,-298.86 866.71,-330.91 903.13,-351.01"/>
<polygon fill="#757575" stroke="#757575" points="901.38,-354.04 911.82,-355.85 904.79,-347.92 901.38,-354.04"/>
</g>
<!-- index.css -->
<g id="node34" class="node">
<title>index.css</title>
<path fill="none" stroke="#cfffac" d="M391.33,-67.5C391.33,-67.5 331.67,-67.5 331.67,-67.5 327.58,-67.5 323.5,-63.42 323.5,-59.33 323.5,-59.33 323.5,-51.17 323.5,-51.17 323.5,-47.08 327.58,-43 331.67,-43 331.67,-43 391.33,-43 391.33,-43 395.42,-43 399.5,-47.08 399.5,-51.17 399.5,-51.17 399.5,-59.33 399.5,-59.33 399.5,-63.42 395.42,-67.5 391.33,-67.5"/>
<text text-anchor="middle" x="361.5" y="-50.2" font-family="Arial" font-size="14.00" fill="#cfffac">index.css</text>
</g>
<!-- index.js -->
<g id="node35" class="node">
<title>index.js</title>
<path fill="none" stroke="#c6c5fe" d="M128.58,-67.5C128.58,-67.5 80.92,-67.5 80.92,-67.5 76.83,-67.5 72.75,-63.42 72.75,-59.33 72.75,-59.33 72.75,-51.17 72.75,-51.17 72.75,-47.08 76.83,-43 80.92,-43 80.92,-43 128.58,-43 128.58,-43 132.67,-43 136.75,-47.08 136.75,-51.17 136.75,-51.17 136.75,-59.33 136.75,-59.33 136.75,-63.42 132.67,-67.5 128.58,-67.5"/>
<text text-anchor="middle" x="104.75" y="-50.2" font-family="Arial" font-size="14.00" fill="#c6c5fe">index.js</text>
</g>
<!-- index.js&#45;&gt;App.js -->
<g id="edge55" class="edge">
<title>index.js&#45;&gt;App.js</title>
<path fill="none" stroke="#757575" d="M109.24,-67.83C129.11,-139.39 227.87,-492.47 245.5,-508.25 265.93,-526.55 296.77,-531.67 321.37,-532.42"/>
<polygon fill="#757575" stroke="#757575" points="321.34,-535.92 331.36,-532.47 321.38,-528.92 321.34,-535.92"/>
</g>
<!-- index.js&#45;&gt;index.css -->
<g id="edge56" class="edge">
<title>index.js&#45;&gt;index.css</title>
<path fill="none" stroke="#757575" d="M137.24,-55.25C180.96,-55.25 260.45,-55.25 311.84,-55.25"/>
<polygon fill="#757575" stroke="#757575" points="311.79,-58.75 321.79,-55.25 311.79,-51.75 311.79,-58.75"/>
</g>
<!-- reportWebVitals.js -->
<g id="node36" class="node">
<title>reportWebVitals.js</title>
<path fill="none" stroke="#cfffac" d="M419.83,-24.5C419.83,-24.5 303.17,-24.5 303.17,-24.5 299.08,-24.5 295,-20.42 295,-16.33 295,-16.33 295,-8.17 295,-8.17 295,-4.08 299.08,0 303.17,0 303.17,0 419.83,0 419.83,0 423.92,0 428,-4.08 428,-8.17 428,-8.17 428,-16.33 428,-16.33 428,-20.42 423.92,-24.5 419.83,-24.5"/>
<text text-anchor="middle" x="361.5" y="-7.2" font-family="Arial" font-size="14.00" fill="#cfffac">reportWebVitals.js</text>
</g>
<!-- index.js&#45;&gt;reportWebVitals.js -->
<g id="edge57" class="edge">
<title>index.js&#45;&gt;reportWebVitals.js</title>
<path fill="none" stroke="#757575" d="M137.24,-49.93C173.49,-43.82 234.33,-33.55 283.35,-25.27"/>
<polygon fill="#757575" stroke="#757575" points="283.8,-28.75 293.08,-23.63 282.64,-21.84 283.8,-28.75"/>
</g>
<!-- setupTests.js -->
<g id="node37" class="node">
<title>setupTests.js</title>
<path fill="none" stroke="#cfffac" d="M147.33,-605.5C147.33,-605.5 62.17,-605.5 62.17,-605.5 58.08,-605.5 54,-601.42 54,-597.33 54,-597.33 54,-589.17 54,-589.17 54,-585.08 58.08,-581 62.17,-581 62.17,-581 147.33,-581 147.33,-581 151.42,-581 155.5,-585.08 155.5,-589.17 155.5,-589.17 155.5,-597.33 155.5,-597.33 155.5,-601.42 151.42,-605.5 147.33,-605.5"/>
<text text-anchor="middle" x="104.75" y="-588.2" font-family="Arial" font-size="14.00" fill="#cfffac">setupTests.js</text>
</g>
</g>
</svg>
